HIERARCHY
ROOT Hip
{
	OFFSET	0.0000	0.0000	0.0000
	CHANNELS 6 Xposition Yposition Zposition Xrotation Yrotation Zrotation
	JOINT LowerSpine
	{
		OFFSET	0.0000	8.3155	-4.4999
		CHANNELS 3 Xrotation Yrotation Zrotation
		JOINT MiddleSpine
		{
			OFFSET	0.0000	7.5885	0.3964
			CHANNELS 3 Xrotation Yrotation Zrotation
			JOINT Chest
			{
				OFFSET	0.0000	9.3899	-2.0901
				CHANNELS 3 Xrotation Yrotation Zrotation
				JOINT Neck
				{
					OFFSET	0.0000	21.1598	-0.4401
					CHANNELS 3 Xrotation Yrotation Zrotation
					JOINT Head
					{
						OFFSET	0.0000	11.9492	3.2502
						CHANNELS 3 Xrotation Yrotation Zrotation
						End Site
						{
							OFFSET	0.0001	16.6961	0.4984
						}
					}
				}
				JOINT LClavicle
				{
					OFFSET	2.1363	20.4203	6.9961
					CHANNELS 3 Xrotation Yrotation Zrotation
					JOINT LShoulder
					{
						OFFSET	12.4803	2.9290	-4.7394
						CHANNELS 3 Xrotation Yrotation Zrotation
						JOINT LForearm
						{
							OFFSET	26.5107	-0.0942	-0.2297
							CHANNELS 3 Xrotation Yrotation Zrotation
							JOINT LHand
							{
								OFFSET	22.1155	0.0642	-0.1324
								CHANNELS 3 Xrotation Yrotation Zrotation
								JOINT LFinger1
								{
									OFFSET	8.5713	0.7496	2.3806
									CHANNELS 3 Xrotation Yrotation Zrotation
									JOINT LFinger11
									{
										OFFSET	3.2061	-0.7818	0.5649
										CHANNELS 3 Xrotation Yrotation Zrotation
										JOINT LFinger12
										{
											OFFSET	2.1887	-0.5340	0.3858
											CHANNELS 3 Xrotation Yrotation Zrotation
											End Site
											{
												OFFSET	1.5575	-0.4649	0.2526
											}
										}
									}
								}
								JOINT LFinger2
								{
									OFFSET	8.6993	0.8657	0.2073
									CHANNELS 3 Xrotation Yrotation Zrotation
									JOINT LFinger21
									{
										OFFSET	3.9642	0.0111	-0.0234
										CHANNELS 3 Xrotation Yrotation Zrotation
										JOINT LFinger22
										{
											OFFSET	2.1972	0.0067	-0.0134
											CHANNELS 3 Xrotation Yrotation Zrotation
											End Site
											{
												OFFSET	1.9736	-0.1394	0.0027
											}
										}
									}
								}
								JOINT LFinger3
								{
									OFFSET	8.2443	0.5776	-1.9504
									CHANNELS 3 Xrotation Yrotation Zrotation
									JOINT LFinger31
									{
										OFFSET	3.5971	-0.1821	-0.2252
										CHANNELS 3 Xrotation Yrotation Zrotation
										JOINT LFinger32
										{
											OFFSET	2.0497	-0.1031	-0.1288
											CHANNELS 3 Xrotation Yrotation Zrotation
											End Site
											{
												OFFSET	1.8124	-0.2228	-0.0857
											}
										}
									}
								}
								JOINT LFinger4
								{
									OFFSET	7.6504	-0.5814	-3.3685
									CHANNELS 3 Xrotation Yrotation Zrotation
									JOINT LFinger41
									{
										OFFSET	2.2125	-0.4614	-0.6108
										CHANNELS 3 Xrotation Yrotation Zrotation
										JOINT LFinger42
										{
											OFFSET	1.6225	-0.3379	-0.4481
											CHANNELS 3 Xrotation Yrotation Zrotation
											End Site
											{
												OFFSET	1.4401	-0.3957	-0.3304
											}
										}
									}
								}
								JOINT LFinger0
								{
									OFFSET	1.7730	-1.3420	1.3441
									CHANNELS 3 Xrotation Yrotation Zrotation
									JOINT LFinger01
									{
										OFFSET	3.3012	-1.0843	2.4890
										CHANNELS 3 Xrotation Yrotation Zrotation
										JOINT LFinger02
										{
											OFFSET	2.1738	-0.7778	1.5662
											CHANNELS 3 Xrotation Yrotation Zrotation
											End Site
											{
												OFFSET	1.5985	-0.5503	1.0946
											}
										}
									}
								}
							}
						}
					}
				}
				JOINT RClavicle
				{
					OFFSET	-2.1363	20.4203	6.9961
					CHANNELS 3 Xrotation Yrotation Zrotation
					JOINT RShoulder
					{
						OFFSET	-12.4825	2.9295	-4.7402
						CHANNELS 3 Xrotation Yrotation Zrotation
						JOINT RForearm
						{
							OFFSET	-26.5107	-0.0941	-0.2297
							CHANNELS 3 Xrotation Yrotation Zrotation
							JOINT RHand
							{
								OFFSET	-22.1155	0.0642	-0.1324
								CHANNELS 3 Xrotation Yrotation Zrotation
								JOINT RFinger1
								{
									OFFSET	-8.5713	0.7496	2.3806
									CHANNELS 3 Xrotation Yrotation Zrotation
									JOINT RFinger11
									{
										OFFSET	-3.2061	-0.7818	0.5649
										CHANNELS 3 Xrotation Yrotation Zrotation
										JOINT RFinger12
										{
											OFFSET	-2.1887	-0.5340	0.3858
											CHANNELS 3 Xrotation Yrotation Zrotation
											End Site
											{
												OFFSET	-1.5575	-0.4649	0.2526
											}
										}
									}
								}
								JOINT RFinger2
								{
									OFFSET	-8.6993	0.8657	0.2073
									CHANNELS 3 Xrotation Yrotation Zrotation
									JOINT RFinger21
									{
										OFFSET	-3.9642	0.0111	-0.0234
										CHANNELS 3 Xrotation Yrotation Zrotation
										JOINT RFinger22
										{
											OFFSET	-2.1972	0.0067	-0.0134
											CHANNELS 3 Xrotation Yrotation Zrotation
											End Site
											{
												OFFSET	-1.9736	-0.1394	0.0027
											}
										}
									}
								}
								JOINT RFinger3
								{
									OFFSET	-8.2443	0.5776	-1.9504
									CHANNELS 3 Xrotation Yrotation Zrotation
									JOINT RFinger31
									{
										OFFSET	-3.5971	-0.1821	-0.2252
										CHANNELS 3 Xrotation Yrotation Zrotation
										JOINT RFinger32
										{
											OFFSET	-2.0497	-0.1031	-0.1288
											CHANNELS 3 Xrotation Yrotation Zrotation
											End Site
											{
												OFFSET	-1.8124	-0.2228	-0.0857
											}
										}
									}
								}
								JOINT RFinger4
								{
									OFFSET	-7.6504	-0.5814	-3.3685
									CHANNELS 3 Xrotation Yrotation Zrotation
									JOINT RFinger41
									{
										OFFSET	-2.2125	-0.4614	-0.6108
										CHANNELS 3 Xrotation Yrotation Zrotation
										JOINT RFinger42
										{
											OFFSET	-1.6225	-0.3379	-0.4481
											CHANNELS 3 Xrotation Yrotation Zrotation
											End Site
											{
												OFFSET	-1.4401	-0.3957	-0.3304
											}
										}
									}
								}
								JOINT RFinger0
								{
									OFFSET	-1.7730	-1.3420	1.3441
									CHANNELS 3 Xrotation Yrotation Zrotation
									JOINT RFinger01
									{
										OFFSET	-3.3012	-1.0843	2.4890
										CHANNELS 3 Xrotation Yrotation Zrotation
										JOINT RFinger02
										{
											OFFSET	-2.1738	-0.7778	1.5662
											CHANNELS 3 Xrotation Yrotation Zrotation
											End Site
											{
												OFFSET	-1.5985	-0.5503	1.0946
											}
										}
									}
								}
							}
						}
					}
				}
			}
		}
	}
	JOINT RThigh
	{
		OFFSET	-8.8955	3.7588	-0.7333
		CHANNELS 3 Xrotation Yrotation Zrotation
		JOINT RShin
		{
			OFFSET	-0.7118	-38.6915	0.0000
			CHANNELS 3 Xrotation Yrotation Zrotation
			JOINT RFoot
			{
				OFFSET	0.0000	-37.9926	0.0000
				CHANNELS 3 Xrotation Yrotation Zrotation
				JOINT RToe
				{
					OFFSET	0.0000	-4.1757	8.7320
					CHANNELS 3 Xrotation Yrotation Zrotation
					End Site
					{
						OFFSET	0.0000	0.0000	5.8580
					}
				}
			}
		}
	}
	JOINT LThigh
	{
		OFFSET	8.8954	3.7591	-0.7333
		CHANNELS 3 Xrotation Yrotation Zrotation
		JOINT LShin
		{
			OFFSET	0.7119	-38.6917	0.0000
			CHANNELS 3 Xrotation Yrotation Zrotation
			JOINT LFoot
			{
				OFFSET	0.0000	-37.9926	0.0000
				CHANNELS 3 Xrotation Yrotation Zrotation
				JOINT LToe
				{
					OFFSET	0.0000	-4.1757	8.7320
					CHANNELS 3 Xrotation Yrotation Zrotation
					End Site
					{
						OFFSET	0.0000	0.0000	5.8580
					}
				}
			}
		}
	}
}
MOTION
Frames:	4
Frame Time: 0.0333333000
	0.0000	79.2697	2.8200	0.000000	0.000000	0.000000	0.000000	0.000000	0.000000	0.000000	0.000000	0.000000	0.000000	0.000000	0.000000	0.000000	0.000000	0.000000	0.000000	0.000000	0.000000	0.000000	0.000000	0.000000	0.000000	0.000000	0.000000	0.000000	0.000000	0.000000	0.000000	0.000000	0.000000	0.000000	0.000000	0.000000	0.000000	0.000000	0.000000	0.000000	0.000000	0.000000	0.000000	0.000000	0.000000	0.000000	0.000000	0.000000	0.000000	0.000000	0.000000	0.000000	0.000000	0.000000	0.000000	0.000000	0.000000	0.000000	0.000000	0.000000	0.000000	0.000000	0.000000	0.000000	0.000000	0.000000	0.000000	0.000000	0.000000	0.000000	0.000000	0.000000	0.000000	0.000000	0.000000	0.000000	0.000000	0.000000	0.000000	0.000000	0.000000	0.000000	0.000000	0.000000	0.000000	0.000000	0.000000	0.000000	0.000000	0.000000	0.000000	0.000000	0.000000	0.000000	0.000000	0.000000	0.000000	0.000000	0.000000	0.000000	0.000000	0.000000	0.000000	0.000000	0.000000	0.000000	0.000000	0.000000	0.000000	0.000000	0.000000	0.000000	0.000000	0.000000	0.000000	0.000000	0.000000	0.000000	0.000000	0.000000	0.000000	0.000000	0.000000	0.000000	0.000000	0.000000	0.000000	0.000000	0.000000	0.000000	0.000000	0.000000	0.000000	0.000000	0.000000	0.000000	0.000000	0.000000	0.000000	0.000000	0.000000	0.000000	0.000000	0.000000	0.000000	0.000000	0.000000	0.000000	0.000000	0.000000	0.000000	0.000000	0.000000	0.000000	0.000000	0.000000	0.000000	0.000000	0.000000
	-3.7506	79.5233	-7.7230	-2.082376	-0.840946	2.590477	0.000000	0.000000	0.000000	3.638314	-0.446753	-0.575610	12.111360	-1.624218	-1.800683	0.000000	0.000000	0.000000	0.000000	0.000000	0.000000	0.000000	0.000000	-10.929590	-2.415906	-33.952370	-46.539310	13.074980	6.391526	-13.976930	0.000000	0.000000	0.000000	0.000000	0.000000	0.000000	0.000000	0.000000	0.000000	0.000000	0.000000	0.000000	0.000000	0.000000	0.000000	0.000000	0.000000	0.000000	0.000000	0.000000	0.000000	0.000000	0.000000	0.000000	0.000000	0.000000	0.000000	0.000000	0.000000	0.000000	0.000000	0.000000	0.000000	0.000000	0.000000	0.000000	0.000000	0.000000	0.000000	0.000000	0.000000	0.000000	0.000000	0.000000	0.000000	0.000000	0.000000	0.000000	0.000000	0.000000	11.802910	-11.153040	5.194234	49.403380	-28.381650	117.148500	-0.327494	0.000000	0.000000	0.000000	0.000000	0.000000	0.000000	0.000000	0.000000	0.000000	0.000000	0.000000	0.000000	0.000000	0.000000	0.000000	0.000000	0.000000	0.000000	0.000000	0.000000	0.000000	0.000000	0.000000	0.000000	0.000000	0.000000	0.000000	0.000000	0.000000	0.000000	0.000000	0.000000	0.000000	0.000000	0.000000	0.000000	0.000000	0.000000	0.000000	0.000000	0.000000	0.000000	0.000000	0.000000	0.000000	0.000000	0.000000	0.000000	4.696226	-0.767461	-5.461326	13.323900	-0.661040	0.102104	-5.601980	1.817786	0.974420	-1.134375	0.000000	0.000000	0.085393	0.235868	-1.853145	8.808805	0.440967	2.173737	0.587768	0.227250	0.150799	-0.317969	0.000000	0.000000
	-3.9062	79.5012	-8.4450	-0.561715	-1.774423	2.291110	0.000000	0.000000	0.000000	3.513450	-0.628353	-0.589366	11.689500	-2.226017	-1.807912	0.000000	0.000000	0.000000	0.000000	0.000000	0.000000	0.000000	0.000000	-11.289790	-1.156908	-35.891740	-47.493980	15.644520	9.088649	-16.727530	0.000000	0.000000	0.000000	0.000000	0.000000	0.000000	0.000000	0.000000	0.000000	0.000000	0.000000	0.000000	0.000000	0.000000	0.000000	0.000000	0.000000	0.000000	0.000000	0.000000	0.000000	0.000000	0.000000	0.000000	0.000000	0.000000	0.000000	0.000000	0.000000	0.000000	0.000000	0.000000	0.000000	0.000000	0.000000	0.000000	0.000000	0.000000	0.000000	0.000000	0.000000	0.000000	0.000000	0.000000	0.000000	0.000000	0.000000	0.000000	0.000000	0.000000	12.196860	-10.904330	9.263388	52.138980	-26.896710	117.230900	-0.285994	0.000000	0.000000	0.000000	0.000000	0.000000	0.000000	0.000000	0.000000	0.000000	0.000000	0.000000	0.000000	0.000000	0.000000	0.000000	0.000000	0.000000	0.000000	0.000000	0.000000	0.000000	0.000000	0.000000	0.000000	0.000000	0.000000	0.000000	0.000000	0.000000	0.000000	0.000000	0.000000	0.000000	0.000000	0.000000	0.000000	0.000000	0.000000	0.000000	0.000000	0.000000	0.000000	0.000000	0.000000	0.000000	0.000000	0.000000	0.000000	0.489693	-0.573104	-5.624231	17.744510	-0.836967	0.217568	-4.729430	1.287544	0.682201	-2.412500	0.000000	0.000000	-5.193017	0.260298	-0.622086	16.675910	0.643913	0.699188	0.603800	0.491712	0.260196	-1.444531	0.000000	0.000000
	-3.8600	79.2627	-8.9968	0.906768	-2.818469	2.238195	0.000000	0.000000	0.000000	3.350260	-0.644745	-0.581220	11.146470	-2.272518	-1.782988	0.000000	0.000000	0.000000	0.000000	0.000000	0.000000	0.000000	0.000000	-11.387650	-0.247365	-38.721890	-47.678310	15.791610	9.283519	-17.149160	0.000000	0.000000	0.000000	0.000000	0.000000	0.000000	0.000000	0.000000	0.000000	0.000000	0.000000	0.000000	0.000000	0.000000	0.000000	0.000000	0.000000	0.000000	0.000000	0.000000	0.000000	0.000000	0.000000	0.000000	0.000000	0.000000	0.000000	0.000000	0.000000	0.000000	0.000000	0.000000	0.000000	0.000000	0.000000	0.000000	0.000000	0.000000	0.000000	0.000000	0.000000	0.000000	0.000000	0.000000	0.000000	0.000000	0.000000	0.000000	0.000000	0.000000	12.667650	-10.919430	12.019740	54.994870	-26.218420	118.049600	-0.341018	0.000000	0.000000	0.000000	0.000000	0.000000	0.000000	0.000000	0.000000	0.000000	0.000000	0.000000	0.000000	0.000000	0.000000	0.000000	0.000000	0.000000	0.000000	0.000000	0.000000	0.000000	0.000000	0.000000	0.000000	0.000000	0.000000	0.000000	0.000000	0.000000	0.000000	0.000000	0.000000	0.000000	0.000000	0.000000	0.000000	0.000000	0.000000	0.000000	0.000000	0.000000	0.000000	0.000000	0.000000	0.000000	0.000000	0.000000	0.000000	-3.130306	-0.491548	-6.239049	20.688670	-1.040463	0.323945	-5.373202	0.938415	0.487526	-2.556249	0.000000	0.000000	-9.891253	0.539788	0.176479	23.875210	1.094640	-0.278742	0.410099	0.821273	0.396128	-3.366406	0.000000	0.000000
